solid games/st4r-666ax
  facet normal 9.259310e-1 -3.776926e-1 0.000000e+0
    outer loop
      vertex 1.102182e-15 -1.800000e+1 0.000000e+0
      vertex 4.702282e+0 -6.472136e+0 0.000000e+0
      vertex 4.702282e+0 -6.472136e+0 5.000000e+0
    endloop
  endfacet
  facet normal 9.259310e-1 -3.776926e-1 0.000000e+0
    outer loop
      vertex 1.102182e-15 -1.800000e+1 0.000000e+0
      vertex 4.702282e+0 -6.472136e+0 5.000000e+0
      vertex 1.102182e-15 -1.800000e+1 5.000000e+0
    endloop
  endfacet
  facet normal 7.307858e-2 -9.973262e-1 0.000000e+0
    outer loop
      vertex 4.702282e+0 -6.472136e+0 0.000000e+0
      vertex 1.711902e+1 -5.562306e+0 0.000000e+0
      vertex 1.711902e+1 -5.562306e+0 5.000000e+0
    endloop
  endfacet
  facet normal 7.307858e-2 -9.973262e-1 0.000000e+0
    outer loop
      vertex 4.702282e+0 -6.472136e+0 0.000000e+0
      vertex 1.711902e+1 -5.562306e+0 5.000000e+0
      vertex 4.702282e+0 -6.472136e+0 5.000000e+0
    endloop
  endfacet
  facet normal 6.453354e-1 7.638993e-1 0.000000e+0
    outer loop
      vertex 1.711902e+1 -5.562306e+0 0.000000e+0
      vertex 7.608452e+0 2.472136e+0 0.000000e+0
      vertex 7.608452e+0 2.472136e+0 5.000000e+0
    endloop
  endfacet
  facet normal 6.453354e-1 7.638993e-1 0.000000e+0
    outer loop
      vertex 1.711902e+1 -5.562306e+0 0.000000e+0
      vertex 7.608452e+0 2.472136e+0 5.000000e+0
      vertex 1.711902e+1 -5.562306e+0 5.000000e+0
    endloop
  endfacet
  facet normal 9.710961e-1 -2.386889e-1 0.000000e+0
    outer loop
      vertex 7.608452e+0 2.472136e+0 0.000000e+0
      vertex 1.058013e+1 1.456231e+1 0.000000e+0
      vertex 1.058013e+1 1.456231e+1 5.000000e+0
    endloop
  endfacet
  facet normal 9.710961e-1 -2.386889e-1 0.000000e+0
    outer loop
      vertex 7.608452e+0 2.472136e+0 0.000000e+0
      vertex 1.058013e+1 1.456231e+1 5.000000e+0
      vertex 7.608452e+0 2.472136e+0 5.000000e+0
    endloop
  endfacet
  facet normal -5.270918e-1 8.498083e-1 0.000000e+0
    outer loop
      vertex 1.058013e+1 1.456231e+1 0.000000e+0
      vertex 4.898587e-16 8.000000e+0 0.000000e+0
      vertex 4.898587e-16 8.000000e+0 5.000000e+0
    endloop
  endfacet
  facet normal -5.270918e-1 8.498083e-1 0.000000e+0
    outer loop
      vertex 1.058013e+1 1.456231e+1 0.000000e+0
      vertex 4.898587e-16 8.000000e+0 5.000000e+0
      vertex 1.058013e+1 1.456231e+1 5.000000e+0
    endloop
  endfacet
  facet normal 5.270918e-1 8.498083e-1 0.000000e+0
    outer loop
      vertex 4.898587e-16 8.000000e+0 0.000000e+0
      vertex -1.058013e+1 1.456231e+1 0.000000e+0
      vertex -1.058013e+1 1.456231e+1 5.000000e+0
    endloop
  endfacet
  facet normal 5.270918e-1 8.498083e-1 0.000000e+0
    outer loop
      vertex 4.898587e-16 8.000000e+0 0.000000e+0
      vertex -1.058013e+1 1.456231e+1 5.000000e+0
      vertex 4.898587e-16 8.000000e+0 5.000000e+0
    endloop
  endfacet
  facet normal -9.710961e-1 -2.386889e-1 0.000000e+0
    outer loop
      vertex -1.058013e+1 1.456231e+1 0.000000e+0
      vertex -7.608452e+0 2.472136e+0 0.000000e+0
      vertex -7.608452e+0 2.472136e+0 5.000000e+0
    endloop
  endfacet
  facet normal -9.710961e-1 -2.386889e-1 0.000000e+0
    outer loop
      vertex -1.058013e+1 1.456231e+1 0.000000e+0
      vertex -7.608452e+0 2.472136e+0 5.000000e+0
      vertex -1.058013e+1 1.456231e+1 5.000000e+0
    endloop
  endfacet
  facet normal -6.453354e-1 7.638993e-1 0.000000e+0
    outer loop
      vertex -7.608452e+0 2.472136e+0 0.000000e+0
      vertex -1.711902e+1 -5.562306e+0 0.000000e+0
      vertex -1.711902e+1 -5.562306e+0 5.000000e+0
    endloop
  endfacet
  facet normal -6.453354e-1 7.638993e-1 0.000000e+0
    outer loop
      vertex -7.608452e+0 2.472136e+0 0.000000e+0
      vertex -1.711902e+1 -5.562306e+0 5.000000e+0
      vertex -7.608452e+0 2.472136e+0 5.000000e+0
    endloop
  endfacet
  facet normal -7.307858e-2 -9.973262e-1 0.000000e+0
    outer loop
      vertex -1.711902e+1 -5.562306e+0 0.000000e+0
      vertex -4.702282e+0 -6.472136e+0 0.000000e+0
      vertex -4.702282e+0 -6.472136e+0 5.000000e+0
    endloop
  endfacet
  facet normal -7.307858e-2 -9.973262e-1 0.000000e+0
    outer loop
      vertex -1.711902e+1 -5.562306e+0 0.000000e+0
      vertex -4.702282e+0 -6.472136e+0 5.000000e+0
      vertex -1.711902e+1 -5.562306e+0 5.000000e+0
    endloop
  endfacet
  facet normal -9.259310e-1 -3.776926e-1 0.000000e+0
    outer loop
      vertex -4.702282e+0 -6.472136e+0 0.000000e+0
      vertex 1.102182e-15 -1.800000e+1 0.000000e+0
      vertex 1.102182e-15 -1.800000e+1 5.000000e+0
    endloop
  endfacet
  facet normal -9.259310e-1 -3.776926e-1 0.000000e+0
    outer loop
      vertex -4.702282e+0 -6.472136e+0 0.000000e+0
      vertex 1.102182e-15 -1.800000e+1 5.000000e+0
      vertex -4.702282e+0 -6.472136e+0 5.000000e+0
    endloop
  endfacet
  facet normal 0.000000e+0 0.000000e+0 1.000000e+0
    outer loop
      vertex 1.102182e-15 -1.800000e+1 5.000000e+0
      vertex 1.711902e+1 -5.562306e+0 5.000000e+0
      vertex 4.702282e+0 -6.472136e+0 5.000000e+0
    endloop
  endfacet
  facet normal 0.000000e+0 0.000000e+0 -1.000000e+0
    outer loop
      vertex 1.102182e-15 -1.800000e+1 0.000000e+0
      vertex 4.702282e+0 -6.472136e+0 0.000000e+0
      vertex 1.711902e+1 -5.562306e+0 0.000000e+0
    endloop
  endfacet
  facet normal 0.000000e+0 0.000000e+0 -1.000000e+0
    outer loop
      vertex 1.102182e-15 -1.800000e+1 5.000000e+0
      vertex 7.608452e+0 2.472136e+0 5.000000e+0
      vertex 1.711902e+1 -5.562306e+0 5.000000e+0
    endloop
  endfacet
  facet normal 0.000000e+0 0.000000e+0 1.000000e+0
    outer loop
      vertex 1.102182e-15 -1.800000e+1 0.000000e+0
      vertex 1.711902e+1 -5.562306e+0 0.000000e+0
      vertex 7.608452e+0 2.472136e+0 0.000000e+0
    endloop
  endfacet
  facet normal 0.000000e+0 0.000000e+0 -1.000000e+0
    outer loop
      vertex 1.102182e-15 -1.800000e+1 5.000000e+0
      vertex 1.058013e+1 1.456231e+1 5.000000e+0
      vertex 7.608452e+0 2.472136e+0 5.000000e+0
    endloop
  endfacet
  facet normal 0.000000e+0 0.000000e+0 1.000000e+0
    outer loop
      vertex 1.102182e-15 -1.800000e+1 0.000000e+0
      vertex 7.608452e+0 2.472136e+0 0.000000e+0
      vertex 1.058013e+1 1.456231e+1 0.000000e+0
    endloop
  endfacet
  facet normal 0.000000e+0 0.000000e+0 -1.000000e+0
    outer loop
      vertex 1.102182e-15 -1.800000e+1 5.000000e+0
      vertex 4.898587e-16 8.000000e+0 5.000000e+0
      vertex 1.058013e+1 1.456231e+1 5.000000e+0
    endloop
  endfacet
  facet normal 0.000000e+0 0.000000e+0 1.000000e+0
    outer loop
      vertex 1.102182e-15 -1.800000e+1 0.000000e+0
      vertex 1.058013e+1 1.456231e+1 0.000000e+0
      vertex 4.898587e-16 8.000000e+0 0.000000e+0
    endloop
  endfacet
  facet normal 0.000000e+0 0.000000e+0 -1.000000e+0
    outer loop
      vertex 1.102182e-15 -1.800000e+1 5.000000e+0
      vertex -1.058013e+1 1.456231e+1 5.000000e+0
      vertex 4.898587e-16 8.000000e+0 5.000000e+0
    endloop
  endfacet
  facet normal 0.000000e+0 0.000000e+0 1.000000e+0
    outer loop
      vertex 1.102182e-15 -1.800000e+1 0.000000e+0
      vertex 4.898587e-16 8.000000e+0 0.000000e+0
      vertex -1.058013e+1 1.456231e+1 0.000000e+0
    endloop
  endfacet
  facet normal 0.000000e+0 0.000000e+0 -1.000000e+0
    outer loop
      vertex 1.102182e-15 -1.800000e+1 5.000000e+0
      vertex -7.608452e+0 2.472136e+0 5.000000e+0
      vertex -1.058013e+1 1.456231e+1 5.000000e+0
    endloop
  endfacet
  facet normal 0.000000e+0 0.000000e+0 1.000000e+0
    outer loop
      vertex 1.102182e-15 -1.800000e+1 0.000000e+0
      vertex -1.058013e+1 1.456231e+1 0.000000e+0
      vertex -7.608452e+0 2.472136e+0 0.000000e+0
    endloop
  endfacet
  facet normal 0.000000e+0 0.000000e+0 -1.000000e+0
    outer loop
      vertex 1.102182e-15 -1.800000e+1 5.000000e+0
      vertex -1.711902e+1 -5.562306e+0 5.000000e+0
      vertex -7.608452e+0 2.472136e+0 5.000000e+0
    endloop
  endfacet
  facet normal 0.000000e+0 0.000000e+0 1.000000e+0
    outer loop
      vertex 1.102182e-15 -1.800000e+1 0.000000e+0
      vertex -7.608452e+0 2.472136e+0 0.000000e+0
      vertex -1.711902e+1 -5.562306e+0 0.000000e+0
    endloop
  endfacet
  facet normal 0.000000e+0 0.000000e+0 1.000000e+0
    outer loop
      vertex 1.102182e-15 -1.800000e+1 5.000000e+0
      vertex -4.702282e+0 -6.472136e+0 5.000000e+0
      vertex -1.711902e+1 -5.562306e+0 5.000000e+0
    endloop
  endfacet
  facet normal 0.000000e+0 0.000000e+0 -1.000000e+0
    outer loop
      vertex 1.102182e-15 -1.800000e+1 0.000000e+0
      vertex -1.711902e+1 -5.562306e+0 0.000000e+0
      vertex -4.702282e+0 -6.472136e+0 0.000000e+0
    endloop
  endfacet
endsolid games/st4r-666ax
